<?xml version="1.0" standalone="no"?>
<!DOCTYPE svg PUBLIC "-//W3C//DTD SVG 20010904//EN"
 "http://www.w3.org/TR/2001/REC-SVG-20010904/DTD/svg10.dtd">
<svg version="1.0" xmlns="http://www.w3.org/2000/svg"
 width="695.000000pt" height="667.000000pt" viewBox="0 0 695.000000 667.000000"
 preserveAspectRatio="xMidYMid meet">

<g transform="translate(0.000000,667.000000) scale(0.100000,-0.100000)"
fill="#fff" stroke="none">
<path d="M3245 6384 c-189 -19 -259 -29 -385 -54 -748 -150 -1418 -582 -1860
-1200 -230 -323 -405 -712 -489 -1095 -51 -233 -65 -367 -65 -650 0 -283 14
-417 65 -650 95 -431 306 -872 585 -1224 190 -239 515 -526 779 -686 975 -593
2175 -593 3150 0 264 160 589 447 779 686 279 352 490 793 585 1224 51 233 65
367 65 650 0 230 -4 292 -23 415 -57 369 -141 634 -303 953 -151 295 -310 512
-562 762 -473 471 -1057 758 -1727 850 -108 15 -508 28 -594 19z m935 -1499
c179 -8 429 -19 555 -25 578 -24 864 -51 978 -92 69 -25 114 -76 134 -151 19
-73 51 -407 63 -657 29 -598 -11 -1652 -70 -1832 -10 -32 -35 -78 -56 -102
-60 -72 -137 -89 -539 -121 -264 -20 -526 -32 -1210 -51 -514 -15 -658 -16
-1120 -5 -860 20 -1324 46 -1610 92 -127 20 -131 22 -172 61 -82 80 -91 126
-129 643 -47 655 -40 1278 21 1807 22 194 23 199 56 241 21 28 56 55 94 75
l60 31 410 30 c589 44 800 53 1445 60 316 4 618 8 670 9 52 1 241 -5 420 -13z"/>
<path d="M3283 4650 c-538 -76 -963 -474 -1079 -1010 -26 -119 -26 -381 0
-500 79 -367 301 -672 621 -855 101 -58 207 -98 343 -132 96 -24 126 -27 282
-27 156 0 186 3 282 27 264 66 472 185 647 373 158 169 266 379 317 614 25
114 25 391 0 499 -83 369 -289 657 -601 842 -193 115 -377 168 -605 174 -80 2
-173 0 -207 -5z"/>
</g>
</svg>
